<!-- Generator: Adobe Illustrator 21.1.0, SVG Export Plug-In  -->
<svg version="1.1"
	 xmlns="http://www.w3.org/2000/svg" xmlns:xlink="http://www.w3.org/1999/xlink" xmlns:a="http://ns.adobe.com/AdobeSVGViewerExtensions/3.0/"
	 x="0px" y="0px" width="34.24px" height="40px" viewBox="0 0 34.24 40" style="enable-background:new 0 0 34.24 40;"
	 xml:space="preserve">
<style type="text/css">
	.st0{fill:#F26F21;}
</style>
<defs>
</defs>
<path class="st0" d="M16.849,40c-0.932-0.63-1.827-1.324-2.517-2.206c-1.288-1.646-3.478-2.166-4.709-3.875
	c-0.353-0.49-0.866-0.16-1.297-0.05c-3.019,0.77-5.922-0.359-7.403-2.89c-1.494-2.553-1.19-5.746,1.041-7.861
	c3.896-3.695,6.604-8.104,8.306-13.145c1.116-3.304,3.226-3.95,6.087-2.98c5.546,1.881,9.306,5.754,11.023,11.386
	c0.792,2.597-0.188,4.279-2.703,5.319c-2.866,1.186-5.767,2.282-8.377,4.015c-0.844,0.56-0.915,0.915-0.153,1.598
	c0.592,0.531,1.598,1.015,0.755,2.146c-0.211,0.283,0.236,0.527,0.437,0.739c0.574,0.603,1.17,1.185,1.76,1.773
	c2.383,2.373,2.275,4.108-0.375,6.031C18.099,40,17.474,40,16.849,40z M10.595,12.35c-1.767,4.839-4.717,8.516-8.087,11.954
	c-1.972,2.012-1.674,5.209,0.323,7.154c2.041,1.989,5.219,2.121,7.281,0.031c3.321-3.365,6.995-6.15,11.659-7.893
	C16.404,21.442,12.729,17.876,10.595,12.35z M19.054,20.948c1.493,0.911,3.046,1.651,4.892,1.546
	c1.404-0.08,2.188-0.801,2.326-2.207c0.082-0.835-0.005-1.646-0.308-2.437c-1.745-4.561-4.952-7.688-9.413-9.566
	c-0.563-0.237-1.192-0.372-1.802-0.432c-2.166-0.211-3.466,1.227-3.071,3.365c0.256,1.385,0.73,2.687,1.574,3.894
	c1.396-0.832,2.091-2.617,3.625-3.071c1.739-0.515,3.01,0.728,4.113,1.937c0.708,0.775,1.289,1.654,1.204,2.766
	C22.039,18.755,19.936,19.321,19.054,20.948z M15.766,14.502c-0.564,0.713-1.902,1.166-1.517,1.951
	c0.721,1.471,1.982,2.76,3.472,3.452c0.77,0.358,1.254-0.935,1.973-1.55C17.792,17.588,16.619,16.261,15.766,14.502z M18.192,38.006
	c-0.026-0.101-0.032-0.212-0.081-0.3c-0.847-1.526-2.243-2.549-3.483-3.701c-0.345-0.321-0.621,0.332-0.914,0.551
	c-0.251,0.187-0.481,0.457-0.161,0.769c1.113,1.085,2.228,2.167,3.364,3.228c0.284,0.265,0.702,0.263,1.035,0.131
	C18.182,38.592,18.267,38.289,18.192,38.006z M17.668,13.128c-0.646,0.022-0.83,0.286-0.752,0.81c0.169,1.144,2.126,3.118,3.25,3.24
	c0.417,0.045,0.837,0.106,0.882-0.528C21.132,15.479,18.742,13.06,17.668,13.128z M12.333,34.508
	c0.369-0.455,0.78-1.059,1.287-1.565c0.589-0.588,1.047-0.973,0.185-1.824c-0.852-0.842-1.258-0.424-1.807,0.202
	c-0.305,0.348-0.687,0.631-0.973,0.992c-0.204,0.258-0.871,0.401-0.385,0.917C11.052,33.665,11.387,34.212,12.333,34.508z
	 M19.51,37.439c0.285-0.778-0.026-1.318-0.453-1.771c-0.885-0.938-1.807-1.84-2.728-2.743c-0.189-0.186-0.382-0.578-0.727-0.21
	c-0.336,0.358,0.059,0.536,0.242,0.731C17.071,34.749,18.479,35.88,19.51,37.439z"/>
<path class="st0" d="M22.787,0c0.193,0.36,0.329,0.676,0.191,1.148c-0.534,1.83-0.97,3.688-1.476,5.527
	c-0.116,0.423-0.238,1.025-0.873,0.866c-0.672-0.169-0.421-0.799-0.304-1.175c0.653-2.111,0.967-4.32,1.838-6.367
	C22.37,0,22.578,0,22.787,0z"/>
<path class="st0" d="M23.595,9.738c-0.683-0.183-0.644-0.621-0.307-1.032c1.471-1.796,2.975-3.565,4.463-5.347
	c0.235-0.281,0.563-0.338,0.827-0.182c0.311,0.183,0.311,0.591,0.114,0.83c-1.538,1.874-3.102,3.727-4.67,5.576
	C23.938,9.682,23.744,9.687,23.595,9.738z"/>
<path class="st0" d="M26.458,12.209c-0.529,0.102-0.785,0.077-0.92-0.195c-0.164-0.329-0.059-0.636,0.254-0.783
	c2.041-0.964,4.089-1.913,6.141-2.854c0.297-0.136,0.637-0.12,0.803,0.207c0.151,0.296,0.108,0.618-0.241,0.783
	C30.407,10.355,28.316,11.335,26.458,12.209z"/>
<path class="st0" d="M30.888,14.658c0.825,0,1.649-0.001,2.474,0c0.428,0,0.892,0.04,0.878,0.59
	c-0.011,0.433-0.423,0.553-0.799,0.555c-1.752,0.009-3.505,0.013-5.256-0.01c-0.36-0.005-0.736-0.117-0.709-0.62
	c0.028-0.523,0.427-0.506,0.783-0.511C29.135,14.65,30.011,14.659,30.888,14.658z"/>
</svg>