<!-- Generator: Adobe Illustrator 21.1.0, SVG Export Plug-In  -->
<svg version="1.1"
	 xmlns="http://www.w3.org/2000/svg" xmlns:xlink="http://www.w3.org/1999/xlink" xmlns:a="http://ns.adobe.com/AdobeSVGViewerExtensions/3.0/"
	 x="0px" y="0px" width="26.826px" height="40px" viewBox="0 0 26.826 40" style="enable-background:new 0 0 26.826 40;"
	 xml:space="preserve">
<style type="text/css">
	.st0{fill:#F26F21;}
</style>
<defs>
</defs>
<path class="st0" d="M26.673,22.69l-4.98-11.919c-0.066-0.159-0.158-0.311-0.281-0.463l-0.005-0.007
	c-0.018-0.025-0.037-0.048-0.058-0.069l-0.005-0.006c-0.369-0.416-0.895-0.659-1.443-0.667l-0.318-0.007l0.199-0.222
	c0.678-0.755,1.051-1.729,1.051-2.741c0-2.265-1.843-4.108-4.108-4.108c-2.265,0-4.108,1.843-4.108,4.108
	c0,0.493,0.087,0.977,0.26,1.437l0.117,0.313l-0.303-0.14c-0.645-0.298-1.355-0.456-2.055-0.456h-0.433l0.256-0.238
	c0.881-0.819,1.386-1.975,1.386-3.173C11.847,1.944,9.903,0,7.514,0C5.125,0,3.181,1.944,3.181,4.333
	c0,1.197,0.505,2.353,1.386,3.172l0.254,0.236L4.39,7.743C1.805,7.743,0,9.785,0,12.709v10.074c0,1.043,0.849,1.892,1.892,1.892
	c0.262,0,0.516-0.053,0.755-0.157l0.192-0.084v13.503C2.839,39.074,3.765,40,4.903,40h4.824c0.231,0,0.438-0.155,0.504-0.376
	c0.066-0.221-0.023-0.464-0.216-0.591c-0.113-0.074-0.301-0.239-0.301-0.516v-11.67c0-0.231-0.155-0.438-0.376-0.505
	c-0.049-0.015-0.099-0.022-0.15-0.022c-0.178,0-0.343,0.089-0.441,0.238C7.841,27.945,7.362,30.07,7.235,31
	c-0.025,0.186-0.201,0.326-0.409,0.326H6.817l-0.009-0.001c-0.206-0.028-0.352-0.219-0.325-0.426
	c0.022-0.163,0.233-1.638,0.826-3.146c0.348-0.884,0.76-1.607,1.224-2.147c0.587-0.684,1.262-1.08,2.006-1.178l0.015-0.002
	l0.015,0.001c0.008,0.001,0.016,0.001,0.024,0.001c0.03,0,0.066-0.004,0.108-0.012l0.013-0.003h2.758l0.013,0.002
	c0.048,0.009,0.1,0.014,0.147,0.014c0.014,0,0.027,0,0.04-0.001l0.014-0.001l0.014,0.002c1.327,0.177,2.401,1.295,3.192,3.324
	c0.589,1.512,0.799,2.982,0.821,3.145c0.013,0.099-0.013,0.196-0.073,0.274c-0.066,0.086-0.168,0.141-0.287,0.156l-0.008,0.001
	h-0.008c-0.188,0-0.349-0.141-0.375-0.329c-0.127-0.93-0.606-3.055-1.512-4.441c-0.098-0.149-0.262-0.238-0.44-0.238
	c-0.051,0-0.101,0.007-0.15,0.022c-0.222,0.066-0.376,0.273-0.376,0.504l-0.001,11.67c0,0.277-0.188,0.442-0.301,0.516
	c-0.196,0.129-0.283,0.366-0.215,0.591C14.031,39.846,14.239,40,14.47,40h4.824c0.185,0,0.352-0.094,0.449-0.252l0.017-0.028
	l0.028-0.017c0.584-0.36,0.933-0.987,0.933-1.675v-8.911h2.526c0.165,0,0.322-0.078,0.42-0.21c0.099-0.131,0.131-0.304,0.085-0.462
	l-1.515-5.272l-2.627-8.022l2.99,8.022l0.433,1.037c0.308,0.736,1.022,1.212,1.82,1.212c0.262,0,0.518-0.051,0.76-0.153
	c0.485-0.203,0.863-0.583,1.063-1.071C26.877,23.711,26.876,23.175,26.673,22.69z M16.727,3.535c1.685,0,3.055,1.37,3.055,3.055
	c0,1.44-1.023,2.698-2.432,2.991l-0.013,0.003l-0.831,0.008L16.14,9.588l-0.013-0.003c-1.423-0.284-2.456-1.544-2.456-2.996
	C13.671,4.905,15.042,3.535,16.727,3.535z M4.234,4.333c0-1.809,1.472-3.28,3.28-3.28c1.809,0,3.28,1.472,3.28,3.28
	c0,1.809-1.472,3.28-3.28,3.28C5.705,7.613,4.234,6.142,4.234,4.333z M12.098,23.315c-1.636,0-2.966-1.331-2.966-2.967
	c0-1.636,1.331-2.966,2.966-2.966c1.636,0,2.966,1.331,2.966,2.966C15.064,21.984,13.733,23.315,12.098,23.315z M25.704,23.8
	c-0.093,0.227-0.269,0.405-0.495,0.499c-0.109,0.046-0.225,0.069-0.344,0.069c-0.373,0-0.719-0.226-0.859-0.563l-4.581-10.964
	c-0.071-0.169-0.226-0.29-0.407-0.318c-0.027-0.004-0.054-0.006-0.081-0.006c-0.154,0-0.301,0.069-0.401,0.189l-0.119,0.142
	c-0.113,0.134-0.151,0.315-0.102,0.484l4.235,14.733h-2.354c-0.29,0-0.526,0.236-0.526,0.526v9.437c0,0.375-0.225,0.708-0.573,0.85
	c-0.031,0.013-0.062,0.029-0.089,0.047l-0.034,0.022h-3.487l0.027-0.16c0.015-0.088,0.023-0.179,0.023-0.27l0.001-7.989l0.006-0.001
	l-0.193-2.192l0.456,2.165l0.003,0c0.048,0.233,0.085,0.449,0.111,0.642c0.095,0.695,0.718,1.24,1.418,1.24
	c0.064,0,0.128-0.005,0.192-0.014c0.782-0.106,1.333-0.828,1.227-1.611c-0.131-0.977-0.942-5.913-3.999-7.134l-0.21-0.084
	l0.171-0.148c0.889-0.766,1.398-1.876,1.398-3.045c0-2.216-1.803-4.019-4.019-4.019c-0.064,0-0.129,0.002-0.193,0.005
	c-0.982,0.046-1.913,0.455-2.621,1.151c-0.709,0.696-1.134,1.62-1.196,2.601c-0.081,1.271,0.426,2.476,1.391,3.308l0.171,0.147
	l-0.21,0.084c-3.055,1.221-3.867,6.156-3.999,7.133c-0.105,0.782,0.443,1.504,1.223,1.609c0.065,0.009,0.131,0.014,0.197,0.014
	c0.7,0,1.323-0.544,1.418-1.239c0.02-0.146,0.046-0.303,0.077-0.47l0,0l0,0c0.011-0.056,0.022-0.114,0.034-0.172l0.002,0
	l0.456-2.165l-0.193,2.191l0.007,0.001v7.99c0,0.09,0.008,0.181,0.023,0.27l0.027,0.16H4.903c-0.557,0-1.01-0.453-1.01-1.01V12.019
	c0-0.292-0.238-0.53-0.529-0.53c-0.289,0-0.527,0.235-0.529,0.525L2.732,22.783c0,0.463-0.377,0.839-0.839,0.839
	c-0.027,0-0.053-0.001-0.08-0.004c-0.426-0.04-0.759-0.416-0.759-0.856V12.709c0-1.948,1.032-3.913,3.338-3.913h6.247
	c1.247,0,2.394,0.587,3.146,1.611c0.098,0.133,0.254,0.213,0.417,0.215l5.658-0.01c0.272,0.004,0.537,0.126,0.708,0.326l0.008,0.01
	c0.07,0.084,0.116,0.156,0.146,0.229l4.98,11.919C25.797,23.322,25.797,23.572,25.704,23.8z"/>
</svg>