<!-- Generator: Adobe Illustrator 21.1.0, SVG Export Plug-In  -->
<svg version="1.1"
	 xmlns="http://www.w3.org/2000/svg" xmlns:xlink="http://www.w3.org/1999/xlink" xmlns:a="http://ns.adobe.com/AdobeSVGViewerExtensions/3.0/"
	 x="0px" y="0px" width="40.558px" height="40px" viewBox="0 0 40.558 40" style="enable-background:new 0 0 40.558 40;"
	 xml:space="preserve">
<style type="text/css">
	.st0{fill:#F26F21;}
</style>
<defs>
</defs>
<g>
	<path class="st0" d="M20.264,24.875c1.431,0,2.875-0.128,4.289,0.025c3.68,0.397,6.45,3.208,6.916,6.868
		c0.049,0.381-0.031,0.788,0.066,1.153c0.966,3.638-0.111,4.812-3.813,5.927c-5.222,1.572-10.509,1.581-15.699-0.255
		c-3.26-1.153-3.682-2.043-3.16-5.431c0.167-1.082,0.156-2.202,0.58-3.225c1.354-3.264,3.826-4.987,7.349-5.161
		c1.155-0.057,2.314-0.009,3.472-0.009C20.263,24.803,20.263,24.839,20.264,24.875z M20.543,26.308c0,0.006,0,0.012,0,0.018
		c-1.268,0-2.539-0.058-3.803,0.012c-2.924,0.161-5.216,2.031-5.941,4.847c-0.189,0.735-0.144,1.526-0.278,2.279
		c-0.427,2.404-0.354,2.688,1.994,3.528c4.749,1.699,9.598,1.684,14.418,0.381c3.356-0.907,3.452-1.215,2.933-4.734
		c-0.04-0.271-0.015-0.551-0.039-0.826c-0.252-2.941-2.842-5.405-5.811-5.5C22.859,26.278,21.701,26.308,20.543,26.308z"/>
	<path class="st0" d="M26.631,17.197c0.037,3.572-2.747,6.42-6.313,6.459c-3.597,0.04-6.437-2.7-6.494-6.268
		c-0.059-3.606,2.824-6.584,6.394-6.608C23.705,10.757,26.594,13.648,26.631,17.197z M20.186,21.996
		c2.678,0.011,4.9-2.095,4.951-4.692c0.05-2.575-2.327-4.922-4.961-4.897c-2.572,0.024-4.855,2.286-4.87,4.824
		C15.292,19.8,17.529,21.985,20.186,21.996z"/>
	<path class="st0" d="M20.928,2.75c0,1.78,0.03,3.42-0.019,5.057c-0.015,0.484,0.425,1.277-0.684,1.297
		c-1.179,0.022-0.794-0.814-0.808-1.376c-0.038-1.59-0.013-3.182-0.013-4.834c-0.728,0.026-0.978,0.578-1.331,0.924
		c-0.434,0.426-0.703,0.315-1.088-0.053c-0.399-0.382-0.501-0.688-0.032-1.057c0.043-0.034,0.08-0.075,0.116-0.117
		c2.977-3.454,3.279-3.451,6.295-0.022c0.351,0.399,0.67,0.662,0.117,1.187c-0.489,0.463-0.784,0.409-1.21-0.039
		C21.946,3.376,21.687,2.919,20.928,2.75z"/>
	<path class="st0" d="M0,15.594c1.09-1.115,2.018-2.056,2.937-3.005c0.427-0.441,0.758-0.916,1.45-0.247
		c0.789,0.763-0.02,1.013-0.345,1.409c-0.2,0.244-0.492,0.412-1.158,0.949c2.227,0,3.946,0.003,5.666-0.001
		c0.603-0.001,1.175-0.141,1.163,0.862c-0.012,1.051-0.67,0.795-1.218,0.8c-1.654,0.017-3.308,0.006-4.966,0.006
		c-0.182,0.531,0.337,0.622,0.541,0.891c0.334,0.439,1.02,0.693,0.3,1.441c-0.695,0.724-1.009,0.199-1.434-0.22
		C1.957,17.513,0.972,16.549,0,15.594z"/>
	<path class="st0" d="M40.558,15.587c-1.04,0.985-2.033,1.927-3.028,2.866c-0.413,0.39-0.704,1.001-1.432,0.274
		c-0.718-0.718-0.144-1.02,0.257-1.437c0.22-0.229,0.445-0.454,0.903-0.921c-1.993,0-3.716,0.001-5.439-0.001
		c-0.536-0.001-1.065,0.137-1.087-0.77c-0.023-0.951,0.478-0.911,1.127-0.903c1.703,0.019,3.407,0.007,5.135,0.007
		c0.07-0.669-0.54-0.795-0.821-1.142c-0.321-0.397-0.705-0.653-0.141-1.192c0.538-0.513,0.88-0.413,1.345,0.07
		C38.368,13.467,39.407,14.453,40.558,15.587z"/>
</g>
</svg>