<!-- Generator: Adobe Illustrator 21.1.0, SVG Export Plug-In  -->
<svg version="1.1"
	 xmlns="http://www.w3.org/2000/svg" xmlns:xlink="http://www.w3.org/1999/xlink" xmlns:a="http://ns.adobe.com/AdobeSVGViewerExtensions/3.0/"
	 x="0px" y="0px" width="300px" height="300px" viewBox="0 0 300 300" style="enable-background:new 0 0 300 300;"
	 xml:space="preserve">
<style type="text/css">
	.st0{fill:#F26F21;}
</style>
<defs>
</defs>
<g>
	<path class="st0" d="M183.326,93.457c-23.951-23.951-62.932-23.951-86.88,0c-23.951,23.951-23.951,62.914,0,86.865
		c23.948,23.951,62.929,23.951,86.88,0C207.274,156.371,207.274,117.409,183.326,93.457L183.326,93.457z M111.049,107.505
		c-10.751,10.751-18.469,23.276-23.171,36.446c-1.012-14.663,4.598-30.454,16.669-42.525c11.91-11.895,27.42-17.535,41.91-16.699
		C133.669,89.456,121.507,97.046,111.049,107.505L111.049,107.505z M111.049,107.505"/>
	<path class="st0" d="M150,0C67.163,0,0,67.163,0,150s67.163,150,150,150c82.838,0,150-67.163,150-150S232.837,0,150,0L150,0z
		 M242.944,239.955c-4.058,4.058-10.65,4.058-14.722,0l-30.923-30.938c-3.015-3-3.78-7.41-2.314-11.145l-5.858-5.861
		c-28.991,25.928-73.669,24.975-101.501-2.857c-28.826-28.811-28.826-75.716,0-104.531c28.815-28.826,75.72-28.826,104.531,0
		c27.833,27.832,28.785,72.51,2.858,101.501l5.857,5.857c3.735-1.447,8.145-0.686,11.164,2.329l30.923,30.923
		C247.016,229.294,247.016,235.882,242.944,239.955L242.944,239.955z M242.944,239.955"/>
</g>
</svg>