<!-- Generator: Adobe Illustrator 21.1.0, SVG Export Plug-In  -->
<svg version="1.1"
	 xmlns="http://www.w3.org/2000/svg" xmlns:xlink="http://www.w3.org/1999/xlink" xmlns:a="http://ns.adobe.com/AdobeSVGViewerExtensions/3.0/"
	 x="0px" y="0px" width="300px" height="300px" viewBox="0 0 300 300" style="enable-background:new 0 0 300 300;"
	 xml:space="preserve">
<style type="text/css">
	.st0{fill:#F26F21;}
</style>
<defs>
</defs>
<path class="st0" d="M150.09,69.85c-22.74,0-41.17,18.44-41.17,41.18c0,22.74,18.43,41.18,41.17,41.18s41.18-18.44,41.18-41.18
	C191.27,88.29,172.83,69.85,150.09,69.85z M150.09,144.85c-18.68,0-33.82-15.14-33.82-33.82c0-18.68,15.14-33.82,33.82-33.82
	c18.68,0,33.83,15.14,33.83,33.82C183.92,129.71,168.77,144.85,150.09,144.85z M150.09,69.85c-22.74,0-41.17,18.44-41.17,41.18
	c0,22.74,18.43,41.18,41.17,41.18s41.18-18.44,41.18-41.18C191.27,88.29,172.83,69.85,150.09,69.85z M150.09,144.85
	c-18.68,0-33.82-15.14-33.82-33.82c0-18.68,15.14-33.82,33.82-33.82c18.68,0,33.83,15.14,33.83,33.82
	C183.92,129.71,168.77,144.85,150.09,144.85z M150.09,69.85c-22.74,0-41.17,18.44-41.17,41.18c0,22.74,18.43,41.18,41.17,41.18
	s41.18-18.44,41.18-41.18C191.27,88.29,172.83,69.85,150.09,69.85z M150.09,144.85c-18.68,0-33.82-15.14-33.82-33.82
	c0-18.68,15.14-33.82,33.82-33.82c18.68,0,33.83,15.14,33.83,33.82C183.92,129.71,168.77,144.85,150.09,144.85z M150.09,69.85
	c-22.74,0-41.17,18.44-41.17,41.18c0,22.74,18.43,41.18,41.17,41.18s41.18-18.44,41.18-41.18
	C191.27,88.29,172.83,69.85,150.09,69.85z M150.09,144.85c-18.68,0-33.82-15.14-33.82-33.82c0-18.68,15.14-33.82,33.82-33.82
	c18.68,0,33.83,15.14,33.83,33.82C183.92,129.71,168.77,144.85,150.09,144.85z M150.09,69.85c-22.74,0-41.17,18.44-41.17,41.18
	c0,22.74,18.43,41.18,41.17,41.18s41.18-18.44,41.18-41.18C191.27,88.29,172.83,69.85,150.09,69.85z M150.09,144.85
	c-18.68,0-33.82-15.14-33.82-33.82c0-18.68,15.14-33.82,33.82-33.82c18.68,0,33.83,15.14,33.83,33.82
	C183.92,129.71,168.77,144.85,150.09,144.85z M150.09,69.85c-22.74,0-41.17,18.44-41.17,41.18c0,22.74,18.43,41.18,41.17,41.18
	s41.18-18.44,41.18-41.18C191.27,88.29,172.83,69.85,150.09,69.85z M150.09,144.85c-18.68,0-33.82-15.14-33.82-33.82
	c0-18.68,15.14-33.82,33.82-33.82c18.68,0,33.83,15.14,33.83,33.82C183.92,129.71,168.77,144.85,150.09,144.85z M150,0
	C67.16,0,0,67.16,0,150s67.16,150,150,150s150-67.16,150-150S232.84,0,150,0z M119.94,250l-11.21-25.55l-26.65,9.01
	c0.36-1.47,25.36-68.75,26.84-68.02c1.47,0.74,19.48,15.07,37.5,12.87L119.94,250z M89.06,111.03c0-33.71,27.33-61.03,61.03-61.03
	c33.71,0,61.03,27.32,61.03,61.03c0,33.71-27.32,61.03-61.03,61.03C116.39,172.06,89.06,144.74,89.06,111.03z M191.08,223.35
	c0.74,1.47-11.02,25-11.02,25c0.73-1.11-27.21-70.23-27.21-70.23s17.28,2.21,38.23-12.86l26.84,69.48
	C217.92,234.74,190.35,221.87,191.08,223.35z M150.09,69.85c-22.74,0-41.17,18.44-41.17,41.18c0,22.74,18.43,41.18,41.17,41.18
	s41.18-18.44,41.18-41.18C191.27,88.29,172.83,69.85,150.09,69.85z M150.09,144.85c-18.68,0-33.82-15.14-33.82-33.82
	c0-18.68,15.14-33.82,33.82-33.82c18.68,0,33.83,15.14,33.83,33.82C183.92,129.71,168.77,144.85,150.09,144.85z M150.09,69.85
	c-22.74,0-41.17,18.44-41.17,41.18c0,22.74,18.43,41.18,41.17,41.18s41.18-18.44,41.18-41.18
	C191.27,88.29,172.83,69.85,150.09,69.85z M150.09,144.85c-18.68,0-33.82-15.14-33.82-33.82c0-18.68,15.14-33.82,33.82-33.82
	c18.68,0,33.83,15.14,33.83,33.82C183.92,129.71,168.77,144.85,150.09,144.85z M150.09,69.85c-22.74,0-41.17,18.44-41.17,41.18
	c0,22.74,18.43,41.18,41.17,41.18s41.18-18.44,41.18-41.18C191.27,88.29,172.83,69.85,150.09,69.85z M150.09,144.85
	c-18.68,0-33.82-15.14-33.82-33.82c0-18.68,15.14-33.82,33.82-33.82c18.68,0,33.83,15.14,33.83,33.82
	C183.92,129.71,168.77,144.85,150.09,144.85z M150.09,69.85c-22.74,0-41.17,18.44-41.17,41.18c0,22.74,18.43,41.18,41.17,41.18
	s41.18-18.44,41.18-41.18C191.27,88.29,172.83,69.85,150.09,69.85z M150.09,144.85c-18.68,0-33.82-15.14-33.82-33.82
	c0-18.68,15.14-33.82,33.82-33.82c18.68,0,33.83,15.14,33.83,33.82C183.92,129.71,168.77,144.85,150.09,144.85z M150.09,69.85
	c-22.74,0-41.17,18.44-41.17,41.18c0,22.74,18.43,41.18,41.17,41.18s41.18-18.44,41.18-41.18
	C191.27,88.29,172.83,69.85,150.09,69.85z M150.09,144.85c-18.68,0-33.82-15.14-33.82-33.82c0-18.68,15.14-33.82,33.82-33.82
	c18.68,0,33.83,15.14,33.83,33.82C183.92,129.71,168.77,144.85,150.09,144.85z"/>
</svg>