<!-- Generator: Adobe Illustrator 21.1.0, SVG Export Plug-In  -->
<svg version="1.1"
	 xmlns="http://www.w3.org/2000/svg" xmlns:xlink="http://www.w3.org/1999/xlink" xmlns:a="http://ns.adobe.com/AdobeSVGViewerExtensions/3.0/"
	 x="0px" y="0px" width="33.185px" height="40px" viewBox="0 0 33.185 40" style="enable-background:new 0 0 33.185 40;"
	 xml:space="preserve">
<style type="text/css">
	.st0{fill:#F26F21;}
</style>
<defs>
</defs>
<g>
	<path class="st0" d="M23.789,40c-1.821-4.327-3.674-8.642-5.438-12.992c-0.401-0.99-0.836-1.423-1.988-1.391
		c-3.201,0.089-5.974-1.124-8.335-3.245c-0.626-0.562-0.887-0.683-1.255,0.229c-1.602,3.974-3.268,7.921-4.971,12.023
		c1.321,0.094,2.366-0.479,3.453-0.785c0.926-0.261,1.558-0.178,1.996,0.816c0.456,1.037,1.078,2.001,1.758,3.236
		c0.7-1.649,1.332-3.123,1.95-4.602c0.796-1.905,1.58-3.816,2.371-5.724c0.186-0.448,0.396-0.929,1.008-0.612
		c0.51,0.265,0.287,0.671,0.119,1.068C12.77,32.011,11.093,36.006,9.414,40c-0.208,0-0.417,0-0.625,0
		c-0.776-1.397-1.567-2.785-2.321-4.194c-0.335-0.625-0.634-0.943-1.447-0.594c-1.033,0.443-2.15,0.713-3.252,0.965
		c-0.516,0.118-1.144,0.55-1.605,0.014c-0.415-0.482,0.073-0.995,0.257-1.441c1.804-4.387,3.629-8.766,5.477-13.134
		c0.304-0.718,0.3-1.242-0.147-1.969C1.265,12.349,4.767,3.118,12.919,0.583C13.33,0.455,13.856,0.491,14.101,0
		c1.458,0,2.917,0,4.375,0c2.601,0.798,5.103,1.721,7.114,3.717c6.842,6.789,4.167,18.312-5.019,21.284
		c-1.227,0.397-1.578,0.658-0.955,2.014c1.612,3.51,2.989,7.128,4.541,10.898c0.663-1.176,1.292-2.112,1.737-3.129
		c0.482-1.104,1.135-1.278,2.206-0.873c0.992,0.375,2.05,0.573,3.362,0.926c-1.514-3.697-2.915-7.119-4.316-10.541
		c-0.098-0.238-0.177-0.487-0.302-0.71c-0.234-0.416-0.304-0.817,0.207-1.032c0.524-0.221,0.729,0.172,0.9,0.585
		c0.593,1.431,1.203,2.856,1.796,4.287c1.048,2.528,2.091,5.059,3.132,7.589c0.154,0.373,0.487,0.762,0.178,1.161
		c-0.367,0.475-0.875,0.178-1.298,0.07c-1.199-0.306-2.424-0.569-3.564-1.032c-0.807-0.327-1.115-0.056-1.456,0.583
		c-0.752,1.413-1.548,2.803-2.326,4.202C24.206,40,23.997,40,23.789,40z M16.497,24.407c6.416,0.029,11.627-4.997,11.667-11.251
		c0.042-6.615-4.979-11.864-11.383-11.899C10.315,1.221,5.063,6.309,5.035,12.637C5.004,19.254,9.994,24.377,16.497,24.407z"/>
	<path class="st0" d="M16.598,21.84c4.181,0.033,7.741-2.725,8.76-6.751c0.089-0.352,0.196-0.699,0.286-1.05
		c0.076-0.295,0.299-0.46,0.561-0.437c0.348,0.031,0.573,0.304,0.52,0.648c-0.095,0.61-0.213,1.225-0.405,1.81
		c-1.56,4.744-6.499,7.836-11.151,7c-5.237-0.941-8.909-5.185-8.876-10.26c0.033-5.067,3.777-9.325,8.841-10.054
		c5.108-0.736,9.77,2.216,11.282,7.155c0.135,0.442,0.2,0.907,0.287,1.363c0.073,0.382,0.04,0.778-0.386,0.888
		c-0.457,0.118-0.625-0.23-0.708-0.626c-0.074-0.354-0.178-0.702-0.27-1.052c-1.102-4.176-5.529-7.225-9.678-6.668
		c-4.578,0.615-8.055,4.399-8.112,8.826c-0.059,4.557,3.252,8.55,7.648,9.199C15.654,21.898,16.13,21.84,16.598,21.84z"/>
	<path class="st0" d="M11.93,17.502c1.345-2.466-0.096-4.368-2.194-6.12c-0.79-0.659-0.631-1.271,0.498-1.394
		c0.104-0.011,0.207-0.029,0.311-0.029c2.601,0,4.335-1.171,5.129-3.704c0.137-0.438,0.277-1.063,0.981-1.026
		c0.602,0.032,0.741,0.59,0.857,0.98c0.784,2.634,2.608,3.751,5.253,3.766c0.402,0.002,0.88-0.054,1.076,0.439
		c0.223,0.559-0.23,0.844-0.542,1.177c-0.035,0.038-0.071,0.077-0.114,0.106c-2.135,1.463-2.763,3.397-1.935,5.862
		c0.148,0.44,0.321,1.119-0.135,1.471c-0.466,0.359-1.043,0.017-1.428-0.292c-2.12-1.698-4.144-1.323-6.287,0.023
		C12.146,19.551,11.832,19.285,11.93,17.502z M20.094,17.524c-1.373-2.81-0.195-4.764,1.946-6.553
		c-3.108,0.438-4.48-1.353-5.521-3.793c-0.709,2.844-2.531,3.908-5.358,3.902c2.374,1.636,3.044,3.719,2.07,6.502
		C15.56,15.513,17.727,15.883,20.094,17.524z"/>
</g>
</svg>