<!-- Generator: Adobe Illustrator 21.1.0, SVG Export Plug-In  -->
<svg version="1.1"
	 xmlns="http://www.w3.org/2000/svg" xmlns:xlink="http://www.w3.org/1999/xlink" xmlns:a="http://ns.adobe.com/AdobeSVGViewerExtensions/3.0/"
	 x="0px" y="0px" width="52.179px" height="34.338px" viewBox="0 0 52.179 34.338"
	 style="enable-background:new 0 0 52.179 34.338;" xml:space="preserve">
<style type="text/css">
	.st0{fill:none;stroke:#B3B3B3;stroke-width:2;stroke-miterlimit:10;}
</style>
<defs>
</defs>
<g>
	<g>
		<path class="st0" d="M51.093,2.244v29.851c0,0.361-0.153,0.686-0.4,0.912c-0.221,0.206-0.518,0.332-0.844,0.332H2.336
			c-0.352,0-0.672-0.147-0.897-0.384c-0.215-0.223-0.347-0.526-0.347-0.86V2.244c0-0.321,0.122-0.614,0.323-0.834
			C1.642,1.158,1.971,1,2.336,1h47.512c0.305,0,0.585,0.11,0.802,0.294C50.921,1.522,51.093,1.862,51.093,2.244z"/>
		<path class="st0" d="M50.693,33.007c-0.221,0.206-0.518,0.332-0.844,0.332H2.336c-0.352,0-0.672-0.147-0.897-0.384l17.697-15.647
			l6.956,6.205l6.891-6.235L50.693,33.007z"/>
		<path class="st0" d="M50.651,1.294L32.983,17.278l-6.891,6.235c0,0-2.998-2.672-6.956-6.205C13.011,11.839,4.586,4.305,1.415,1.41
			C1.642,1.158,1.971,1,2.336,1h47.512C50.154,1,50.434,1.11,50.651,1.294z"/>
	</g>
</g>
</svg>