<!-- Generator: Adobe Illustrator 21.1.0, SVG Export Plug-In  -->
<svg version="1.1"
	 xmlns="http://www.w3.org/2000/svg" xmlns:xlink="http://www.w3.org/1999/xlink" xmlns:a="http://ns.adobe.com/AdobeSVGViewerExtensions/3.0/"
	 x="0px" y="0px" width="300px" height="300px" viewBox="0 0 300 300" style="enable-background:new 0 0 300 300;"
	 xml:space="preserve">
<style type="text/css">
	.st0{fill:#F26F21;}
</style>
<defs>
</defs>
<path class="st0" d="M150,0C67.16,0,0,67.16,0,150c0,82.85,67.16,150,150,150c82.85,0,150-67.15,150-150C300,67.16,232.85,0,150,0z
	 M117.75,227.44c-0.36,0.42-0.66,0.87-0.91,1.34c-0.09,0.16-0.25,0.26-0.43,0.26c-0.04,0-0.08-0.01-0.11-0.02
	c-2.65-0.6-5.22-1.38-7.66-2.32c-0.2-0.08-0.36-0.11-0.49-0.09c-0.54,0.07-1.11,0.18-1.75,0.34c-0.13,0.03-0.24,0.09-0.26,0.12
	c-1.37,2.74-3.76,4.5-7.28,5.36c-0.77,0.18-1.56,0.32-2.36,0.4c-0.83,0.09-1.75,0.13-2.75,0.13c-1.38,0-2.36-0.08-2.37-0.08
	c-3.06-0.34-5.67-1.03-7.98-2.11c-0.95-0.44-2.03-1.03-2.86-2.08c-0.16-0.21-0.13-0.5,0.06-0.67c2.35-2.07,4.74-3.57,7.31-4.6
	c3.81-1.52,7.28-1.92,10.68-1.27c0.51,0.1,1.01,0.22,1.49,0.37c-3.18-1.91-6.23-4.14-9.1-6.69c-0.06-0.05-0.15-0.09-0.23-0.11
	c-0.46-0.07-1.09-0.17-1.75-0.22c-0.04,0.01-0.11,0.03-0.13,0.05c-1.72,1.93-3.96,2.87-6.82,2.87c-0.15,0-0.29,0-0.44-0.01
	c-3.11-0.1-6.23-0.95-9.29-2.54c-2.23-1.16-4.54-2.51-6.42-4.52c-0.42-0.45-0.79-0.96-1.12-1.4l-0.03-0.05
	c-0.15-0.19-0.29-0.39-0.44-0.59c-0.09-0.1-0.12-0.24-0.1-0.37c0.02-0.14,0.1-0.26,0.21-0.33c0.06-0.03,0.85-0.46,1.58-0.74
	c4.86-1.88,9.77-2.07,14.46-0.56c1.53,0.49,2.97,1.23,4.38,2.25c-2.6-3.02-5.01-6.33-7.19-9.89c-0.03-0.04-0.09-0.14-0.12-0.16
	c-0.18-0.12-0.37-0.23-0.57-0.35c-0.35-0.21-0.71-0.42-1.05-0.67c-0.29-0.21-0.37-0.22-0.66-0.03c-0.41,0.26-0.88,0.4-1.3,0.51
	c-2.43,0.62-4.88,0.31-7.59-0.96c-2.48-1.16-4.38-3-6.07-4.81c-2.46-2.64-4.07-5.02-5.06-7.49c-0.2-0.52-0.35-1.06-0.49-1.58
	c-0.08-0.28-0.14-0.51-0.22-0.74c-0.07-0.25,0.06-0.51,0.31-0.6l0.08-0.01h0.12c1,0,9.94,0.14,15.17,5.21
	c1.14,1.11,2.16,2.28,3.09,3.57c-2.07-4.39-3.82-9-5.24-13.79l-0.02-0.07c-0.02-0.06-0.04-0.15-0.06-0.17l-1.36-1.88
	c-0.05-0.08-0.06-0.08-0.14-0.08c-0.04,0-0.08,0-0.12,0.01l-0.29,0.01c-1.02,0.07-1.62,0.06-2.11-0.02c-1.95-0.31-3.71-1.29-5.38-3
	c-3.9-4-6.58-8.99-8.2-15.25c-0.18-0.67-0.23-1.35-0.28-2.07c-0.02-0.33-0.05-0.66-0.08-1.01c-0.02-0.16,0.05-0.32,0.17-0.43
	c0.13-0.1,0.3-0.14,0.46-0.08c0.17,0.05,0.33,0.1,0.48,0.14l0.07,0.02c0.38,0.11,0.7,0.2,1.01,0.33c5.03,2,8.99,5.42,12.11,10.47
	c0.77,1.24,1.36,2.54,1.84,3.83c-0.78-4.34-0.96-6.04-1.1-10.9V157c0-0.56,0-1.09-0.13-1.58c-0.15-0.57-0.44-1.15-0.73-1.7
	c-0.08-0.16-0.16-0.31-0.24-0.47c-0.01-0.01-0.08-0.05-0.12-0.06c-1.43-0.22-2.7-0.83-3.88-1.86c-1.19-1.05-2.17-2.34-2.91-3.82
	c-2.65-5.33-3.98-11.21-3.94-17.48c0-0.61,0.07-1.2,0.14-1.82c0.04-0.31,0.08-0.6,0.11-0.9c0.02-0.17,0.12-0.32,0.27-0.39
	c0.14-0.07,0.33-0.07,0.47,0.02c0.09,0.06,0.17,0.1,0.23,0.14c0.14,0.08,0.24,0.15,0.34,0.22c2.27,1.62,4.26,3.64,5.94,6
	c2.73,3.86,4.32,8.22,4.75,13.02c0.04-0.54,0.08-1.07,0.13-1.61l0.01-0.19c0.17-2.1,0.34-4.27,0.49-6.4
	c0.03-0.53,0.13-1.05,0.23-1.56c0.2-0.99,0.38-1.91,0.09-2.88c-0.07-0.22-0.12-0.44-0.18-0.66c-0.14-0.54-0.81-1.38-1.83-2.3
	l-0.04-0.03c-0.38-0.32-2.32-2.1-3.42-5.62c-1.13-3.57-1.04-7.31-0.98-10.03v-0.08c0.08-3.74,0.49-6.57,1.32-9.16
	c0.1-0.33,0.23-0.65,0.36-1c0.07-0.18,0.14-0.36,0.22-0.55c0.06-0.17,0.2-0.28,0.37-0.31l0.08-0.01c0.15,0,0.29,0.07,0.38,0.18
	l0.8,0.98c3.85,4.69,5.74,10.19,5.62,16.36c-0.02,1.08-0.1,2.2-0.24,3.35c0.97-3.38,2.12-6.67,3.43-9.83
	c0.02-0.06,0.04-0.15,0.04-0.22l0.01-0.43c0.02-0.63,0.03-1.28,0-1.91c0-0.1-0.07-0.29-0.21-0.48c-0.2-0.27-0.42-0.53-0.64-0.78
	c-0.41-0.48-0.82-0.95-1.14-1.49c-1.04-1.74-1.53-3.8-1.54-6.48c-0.01-3.14,0.47-6.46,1.53-10.43c0.58-2.17,1.45-4.98,3.08-7.53
	c0.11-0.17,0.23-0.33,0.37-0.5c0.05-0.08,0.12-0.16,0.18-0.24c0.09-0.13,0.23-0.2,0.38-0.2c0.21,0.01,0.36,0.1,0.44,0.25
	c2.04,3.68,3.05,7.62,3.1,12.03c0.04,3.68-0.53,6.85-1.25,9.35c1.83-3.35,3.87-6.59,6.08-9.66l0.04-0.06
	c0.06-0.08,0.08-0.11,0.09-0.12c0.12-0.95,0.22-1.75,0.29-2.46c0,0-0.01-0.04-0.12-0.22c-0.15-0.25-0.31-0.5-0.47-0.74
	c-0.35-0.53-0.7-1.07-0.92-1.67c-0.68-1.81-0.84-3.87-0.47-6.28c0.81-5.35,3.16-10.16,7.2-14.71c0.41-0.47,0.87-0.88,1.36-1.32
	l0.13-0.12c0.19-0.17,0.39-0.35,0.59-0.54c0.12-0.12,0.31-0.16,0.47-0.11c0.17,0.05,0.29,0.19,0.33,0.36l0.09,0.39
	c0.06,0.25,0.11,0.45,0.14,0.66c0.55,3.24,0.51,6.72-0.12,10.62c-0.62,3.87-1.86,7.21-3.75,10.11c2.84-3.35,5.61-6.17,8.51-8.67
	c0.01-0.01,0.03-0.06,0.03-0.08c-0.23-1.94,0.25-3.78,1.47-5.6c1.59-2.4,3.81-4.23,6.59-5.44c1.66-0.72,3.38-1.36,5.05-1.98
	c0.82-0.3,1.63-0.6,2.43-0.91c0.88-0.35,1.23-0.4,1.42-0.22c0.25,0.23,0.19,0.43,0.08,0.79l-0.04,0.12
	c-1.01,3.43-2.37,6.14-4.13,8.3c-3.24,3.95-7.03,5.96-11.58,6.14c-0.15,0.01-0.28,0.05-0.33,0.09c-0.64,0.48-1.11,0.86-1.53,1.24
	c-1.32,1.21-2.61,2.49-3.88,3.84c1.89-1.17,4.19-1.7,6.79-1.57c1.42,0.07,2.84,0.28,4.2,0.48l0.05,0.01
	c0.41,0.06,0.81,0.12,1.21,0.17c0.87,0.12,1.76,0.28,2.54,0.42c0.32,0.05,1.07,0.22,1.25,0.59c0.06,0.12,0.05,0.26-0.02,0.39
	c-0.06,0.1-0.12,0.21-0.2,0.3c-2.25,2.93-4.82,4.85-7.86,5.89c-3.7,1.27-7.11,1.16-10.14-0.32c-0.48-0.27-1.04-0.4-1.69-0.4
	c-0.48,0-0.85,0.08-0.95,0.1c-0.2,0.04-0.44,0.14-0.49,0.2c-1.9,2.5-3.71,5.17-5.39,7.97c1.42-1.38,3.28-2.32,5.81-2.92
	c2.21-0.53,4.47-0.64,6.66-0.75l0.74-0.04c0.68-0.04,1.37-0.08,2.08-0.13l1.15-0.07h0.01c0.18,0,0.33,0.08,0.41,0.2
	c0.1,0.13,0.13,0.31,0.07,0.46c-0.05,0.13-0.14,0.36-0.18,0.43c-2.31,3.87-5.02,6.54-8.29,8.17c-3.2,1.6-6.08,2.02-8.99,1.33
	c-0.34-0.09-0.73-0.13-1.14-0.13c-1.23,0-2.1,0.38-2.28,0.74c-1.6,3.29-3.03,6.73-4.27,10.23c1.3-1.78,3.11-3.23,5.4-4.31
	c2.27-1.08,4.64-2.06,6.93-3.01c1.04-0.43,2.05-0.84,3.05-1.27c0.14-0.06,0.32-0.05,0.46,0.04c0.14,0.09,0.22,0.24,0.22,0.41
	c0,0.31-3.32,9.53-8.15,13.17c-1.97,1.48-4.39,3-7.45,3.08c-0.92,0.02-1.87,0.14-2.58,0.96c-0.11,0.13-0.25,0.23-0.41,0.28
	c-0.25,0.08-0.31,0.23-0.43,0.74c-0.99,4.16-1.72,8.45-2.16,12.8c0.14-0.44,0.29-0.89,0.47-1.34c1.08-2.74,2.9-5.14,5.72-7.55
	c1.46-1.24,2.98-2.45,4.45-3.62l0.08-0.05c0.67-0.53,1.34-1.06,2-1.6c0.14-0.11,0.28-0.23,0.43-0.36l0.42-0.35
	c0.15-0.13,0.36-0.15,0.53-0.07c0.18,0.09,0.28,0.27,0.27,0.47c-0.02,0.3-0.04,0.57-0.05,0.84l-0.01,0.12
	c-0.04,0.55-0.07,1.07-0.12,1.59c-0.53,4.99-2.01,9.15-4.54,12.73c-1.56,2.21-3.81,4.91-7.31,6.19c-0.85,0.32-1.47,0.79-2.13,1.64
	c-0.63,0.8-0.74,1.52-0.73,2.44c0.06,3.83,0.33,7.64,0.82,11.36c0.11-1.03,0.35-2.1,0.71-3.21c0.76-2.3,1.94-4.53,3.62-6.82
	c1.44-1.99,2.94-3.99,4.4-5.92l0.09-0.13c0.58-0.76,1.16-1.53,1.73-2.28c0.09-0.15,0.24-0.21,0.34-0.24
	c0.11-0.05,0.27-0.06,0.4-0.01c0.13,0.06,0.23,0.17,0.27,0.3l0.02,0.06c0.02,0.06,0.04,0.13,0.05,0.19c1,5.98,0.39,11.33-1.88,16.37
	c-1.11,2.47-2.59,5.26-5.21,7.27c-1.2,0.91-2.14,2.2-2.66,3.62c-0.11,0.3-0.11,0.44-0.09,0.49c1.11,4.59,2.55,9.02,4.31,13.21
	c-0.45-2.21-0.42-4.53,0.1-6.94c0.73-3.4,2-6.7,3.12-9.53l0.34-0.85c0.53-1.32,1.06-2.66,1.61-4.04c0.07-0.18,0.23-0.3,0.43-0.31
	c0.19-0.01,0.37,0.1,0.45,0.26l0.18,0.34c0.07,0.14,0.15,0.28,0.21,0.42c2.27,5.11,3.03,10.35,2.27,15.57
	c-0.54,3.73-1.46,6.41-2.97,8.67c-0.79,1.17-1.53,2.47-1.67,4.07c-0.03,0.38-0.01,0.64,0.15,0.94c1.92,3.35,4.06,6.51,6.41,9.44
	c-0.01-0.01-0.02-0.03-0.03-0.05c-1.69-3.08-1.74-6.42-1.57-9.28c0.15-2.45,0.43-4.89,0.7-7.26l0.02-0.14
	c0.11-0.94,0.22-1.89,0.31-2.84c0.06-0.54,0.13-1.07,0.19-1.62l0.09-0.74c0.02-0.16,0.12-0.3,0.27-0.38
	c0.04-0.02,0.1-0.04,0.17-0.04c0.28,0,0.61,0.23,0.99,0.67c3.2,3.79,5.19,8.07,5.9,12.73c0.75,4.83,0.35,8.96-1.23,12.63
	c-0.04,0.1-0.04,0.3-0.04,0.37l0.08,2.12c0.02,0.14,0.1,0.31,0.16,0.37c3.2,3.09,6.72,5.76,10.5,7.99c-1.78-1.61-3.07-3.73-3.9-6.4
	c-0.93-2.96-1.4-6.05-1.86-9.03l-0.04-0.27c-0.16-1.05-0.34-2.1-0.51-3.18l-0.2-1.21c-0.02-0.17,0.05-0.35,0.19-0.46
	c0.13-0.1,0.32-0.13,0.48-0.06l0.17,0.07c0.18,0.07,0.34,0.14,0.5,0.22c7.14,3.57,11.84,11.89,11.18,19.79
	c-0.11,1.23,0.01,2.4,0.35,3.55c0.03,0.1,0.13,0.22,0.17,0.23c3.39,1.44,6.62,2.48,9.86,3.2c0.17,0.03,0.31,0.15,0.36,0.31
	C117.89,227.14,117.86,227.31,117.75,227.44z M177.54,192.14c-0.44,0.31-0.95,0.47-1.47,0.47c-0.4,0-0.8-0.09-1.17-0.28
	l-24.89-13.09l-24.9,13.09c-0.84,0.44-1.87,0.37-2.64-0.19s-1.16-1.52-1-2.46l4.76-27.72l-20.14-19.63
	c-0.69-0.67-0.93-1.66-0.64-2.57c0.3-0.91,1.08-1.57,2.03-1.71l27.83-4.04l12.45-25.22c0.42-0.86,1.29-1.4,2.25-1.4
	c0.95,0,1.82,0.54,2.24,1.4l12.45,25.22l27.83,4.04c0.95,0.14,1.73,0.8,2.03,1.71c0.29,0.91,0.05,1.9-0.64,2.57l-20.14,19.63
	l4.76,27.72C178.7,190.62,178.31,191.58,177.54,192.14z M249.92,155.25c-0.06,0.72-0.1,1.4-0.28,2.07
	c-1.62,6.27-4.31,11.26-8.21,15.26c-1.66,1.71-3.42,2.69-5.37,3c-0.49,0.07-1.09,0.08-2.11,0.02l-0.29-0.02h-0.12
	c-0.08,0-0.09,0-0.14,0.07l-1.36,1.88c-0.02,0.02-0.05,0.11-0.07,0.17l-0.02,0.07c-1.41,4.79-3.16,9.41-5.23,13.79
	c0.93-1.29,1.95-2.46,3.09-3.56c5.23-5.08,14.17-5.22,15.17-5.22l0.2,0.02c0.24,0.08,0.38,0.34,0.3,0.59
	c-0.07,0.23-0.13,0.47-0.19,0.7c-0.16,0.57-0.31,1.1-0.52,1.62c-0.99,2.48-2.59,4.86-5.05,7.5c-1.69,1.81-3.59,3.64-6.07,4.8
	c-2.71,1.28-5.16,1.59-7.59,0.96c-0.42-0.1-0.9-0.24-1.31-0.51c-0.29-0.18-0.37-0.18-0.65,0.03c-0.34,0.26-0.7,0.47-1.05,0.68
	c-0.2,0.11-0.39,0.22-0.58,0.34c-0.02,0.03-0.09,0.13-0.11,0.16c-2.19,3.57-4.59,6.88-7.19,9.9c1.41-1.02,2.85-1.76,4.38-2.26
	c4.68-1.51,9.59-1.31,14.46,0.57c0.73,0.28,1.52,0.7,1.56,0.72c0.12,0.09,0.2,0.2,0.23,0.34c0.02,0.14-0.02,0.27-0.1,0.38
	c-0.15,0.19-0.3,0.39-0.44,0.59l-0.04,0.04c-0.32,0.45-0.7,0.95-1.11,1.4c-1.88,2.02-4.2,3.37-6.42,4.53
	c-3.06,1.58-6.19,2.44-9.3,2.54h-0.44c-2.86,0-5.09-0.94-6.82-2.88c-0.01,0-0.09-0.03-0.15-0.03c-0.64,0.05-1.26,0.14-1.73,0.22
	c-0.07,0.01-0.16,0.06-0.22,0.11c-2.87,2.54-5.92,4.78-9.1,6.68c0.48-0.14,0.98-0.27,1.48-0.36c3.4-0.66,6.88-0.25,10.68,1.26
	c2.58,1.03,4.97,2.54,7.32,4.61c0.19,0.17,0.21,0.46,0.05,0.66c-0.83,1.06-1.91,1.65-2.85,2.09c-2.32,1.07-4.93,1.76-7.98,2.1
	c-0.01,0-1,0.09-2.38,0.09c-0.99,0-1.92-0.04-2.75-0.13c-0.79-0.08-1.58-0.22-2.35-0.41c-3.52-0.85-5.91-2.62-7.3-5.39
	c-0.02,0-0.12-0.05-0.24-0.09c-0.64-0.15-1.21-0.26-1.75-0.34c-0.15-0.02-0.3,0.02-0.49,0.1c-2.44,0.94-5.02,1.72-7.66,2.32
	c-0.19,0.05-0.43-0.05-0.54-0.24c-0.25-0.47-0.56-0.92-0.91-1.34c-0.11-0.13-0.15-0.31-0.09-0.47c0.05-0.16,0.19-0.28,0.35-0.32
	c3.25-0.72,6.48-1.76,9.87-3.19c0.04-0.02,0.14-0.14,0.17-0.24c0.34-1.15,0.46-2.31,0.35-3.55c-0.66-7.9,4.04-16.22,11.18-19.79
	c0.16-0.08,0.31-0.14,0.5-0.22l0.17-0.07c0.15-0.06,0.35-0.04,0.49,0.07c0.13,0.1,0.2,0.28,0.17,0.46l-0.19,1.21
	c-0.18,1.07-0.34,2.12-0.51,3.17l-0.04,0.27c-0.46,2.99-0.93,6.07-1.86,9.03c-0.83,2.68-2.12,4.79-3.9,6.41
	c3.77-2.23,7.3-4.91,10.5-7.99c0.06-0.07,0.14-0.24,0.16-0.39l0.08-2.11c0-0.07,0-0.27-0.04-0.37c-1.58-3.67-1.98-7.8-1.23-12.63
	c0.71-4.65,2.7-8.94,5.9-12.73c0.47-0.55,0.9-0.76,1.17-0.62c0.14,0.07,0.24,0.21,0.26,0.37l0.09,0.74
	c0.06,0.55,0.13,1.09,0.18,1.62c0.1,0.95,0.21,1.9,0.32,2.85l0.02,0.14c0.27,2.36,0.55,4.8,0.7,7.25c0.17,2.86,0.12,6.2-1.57,9.29
	c-0.01,0.01-0.02,0.03-0.03,0.05c2.35-2.94,4.49-6.1,6.4-9.45c0.17-0.3,0.19-0.56,0.16-0.93c-0.14-1.61-0.88-2.91-1.67-4.08
	c-1.51-2.26-2.43-4.93-2.97-8.67c-0.76-5.22,0-10.46,2.27-15.57c0.06-0.14,0.13-0.27,0.21-0.42l0.18-0.33
	c0.08-0.17,0.24-0.27,0.42-0.27c0.23,0.01,0.39,0.13,0.46,0.31c0.55,1.39,1.08,2.72,1.61,4.05l0.34,0.84
	c1.13,2.83,2.39,6.13,3.12,9.54c0.52,2.4,0.55,4.72,0.1,6.93c1.76-4.19,3.2-8.62,4.31-13.21c0.02-0.05,0.02-0.18-0.09-0.49
	c-0.52-1.42-1.46-2.7-2.66-3.62c-2.62-2.01-4.1-4.8-5.21-7.26c-2.27-5.05-2.88-10.4-1.88-16.38c0.01-0.06,0.03-0.12,0.05-0.19
	l0.02-0.06c0.04-0.13,0.14-0.24,0.27-0.29c0.13-0.06,0.28-0.05,0.41,0.01c0.08,0.03,0.24,0.08,0.34,0.23
	c0.56,0.75,1.14,1.52,1.71,2.28l0.1,0.13c1.46,1.93,2.96,3.93,4.4,5.92c1.68,2.29,2.86,4.53,3.62,6.82c0.36,1.11,0.6,2.18,0.72,3.22
	c0.48-3.73,0.75-7.53,0.81-11.37c0.01-0.92-0.1-1.64-0.73-2.44c-0.66-0.85-1.28-1.32-2.13-1.64c-3.5-1.27-5.75-3.98-7.31-6.19
	c-2.53-3.58-4.01-7.74-4.54-12.73c-0.05-0.51-0.08-1.03-0.12-1.58l-0.01-0.13c-0.01-0.26-0.03-0.54-0.05-0.84
	c-0.01-0.19,0.09-0.38,0.27-0.46c0.17-0.09,0.39-0.06,0.53,0.06l0.42,0.36c0.15,0.13,0.29,0.24,0.43,0.35
	c0.66,0.54,1.33,1.07,2.01,1.6l0.07,0.06c1.47,1.16,2.99,2.37,4.45,3.62c2.82,2.41,4.64,4.8,5.72,7.54c0.18,0.45,0.33,0.9,0.47,1.34
	c-0.44-4.35-1.17-8.64-2.16-12.8c-0.12-0.51-0.18-0.66-0.43-0.74c-0.15-0.05-0.3-0.15-0.41-0.28c-0.71-0.81-1.66-0.94-2.58-0.96
	c-3.05-0.07-5.48-1.6-7.45-3.08c-4.83-3.63-8.15-12.86-8.15-13.17c0-0.16,0.08-0.32,0.22-0.41c0.14-0.09,0.31-0.1,0.46-0.04
	c1,0.43,2.01,0.84,3.01,1.26c2.33,0.96,4.7,1.95,6.97,3.02c2.29,1.08,4.1,2.53,5.4,4.31c-1.24-3.5-2.67-6.93-4.27-10.24
	c-0.18-0.35-1.05-0.73-2.28-0.73c-0.41,0-0.8,0.05-1.14,0.13c-2.91,0.7-5.79,0.27-8.99-1.32c-3.27-1.64-5.98-4.31-8.29-8.17
	c-0.04-0.08-0.13-0.31-0.18-0.43c-0.06-0.16-0.03-0.33,0.07-0.47c0.09-0.12,0.23-0.19,0.39-0.19l1.18,0.07
	c0.71,0.04,1.4,0.09,2.08,0.12l0.74,0.04c2.19,0.11,4.45,0.22,6.67,0.75c2.52,0.61,4.38,1.54,5.8,2.93
	c-1.68-2.81-3.49-5.48-5.39-7.97c-0.05-0.07-0.29-0.17-0.47-0.2c-0.12-0.03-0.49-0.11-0.97-0.11c-0.65,0-1.21,0.14-1.68,0.39
	c-3.05,1.5-6.45,1.6-10.15,0.33c-3.04-1.04-5.61-2.96-7.87-5.89c-0.07-0.09-0.13-0.19-0.2-0.3c-0.06-0.13-0.07-0.26-0.01-0.39
	c0.18-0.36,0.93-0.54,1.25-0.59c0.78-0.14,1.66-0.3,2.54-0.41c0.4-0.06,0.8-0.12,1.21-0.18l0.05-0.01c1.36-0.2,2.78-0.41,4.2-0.48
	c2.6-0.13,4.9,0.4,6.79,1.57c-1.27-1.35-2.57-2.63-3.88-3.84c-0.42-0.38-0.89-0.76-1.53-1.24c-0.05-0.04-0.18-0.08-0.34-0.09
	c-4.55-0.18-8.33-2.19-11.57-6.14c-1.77-2.16-3.12-4.87-4.14-8.3l-0.03-0.12c-0.11-0.36-0.17-0.56,0.08-0.79
	c0.19-0.18,0.55-0.12,1.39,0.21c0.83,0.32,1.64,0.62,2.44,0.92c1.69,0.62,3.41,1.26,5.07,1.98c2.78,1.21,5,3.04,6.59,5.44
	c1.22,1.83,1.7,3.66,1.47,5.61c0.01,0.01,0.02,0.06,0.04,0.08c2.89,2.5,5.66,5.31,8.5,8.66c-1.9-2.9-3.13-6.24-3.75-10.11
	c-0.63-3.9-0.67-7.38-0.12-10.62c0.03-0.2,0.08-0.41,0.13-0.66l0.1-0.39c0.03-0.17,0.16-0.31,0.33-0.36c0.17-0.05,0.35,0,0.47,0.11
	c0.2,0.19,0.4,0.37,0.59,0.54l0.13,0.12c0.48,0.44,0.95,0.85,1.36,1.32c4.04,4.55,6.39,9.36,7.2,14.71
	c0.37,2.41,0.22,4.47-0.47,6.28c-0.22,0.6-0.57,1.14-0.92,1.66c-0.16,0.26-0.33,0.5-0.47,0.75c-0.1,0.17-0.12,0.23-0.12,0.24
	c0.07,0.69,0.16,1.48,0.3,2.47c0.01,0,0.03,0.03,0.07,0.08l0.05,0.07c2.21,3.07,4.25,6.31,6.08,9.66c-0.72-2.5-1.29-5.67-1.25-9.35
	c0.04-4.41,1.06-8.35,3.1-12.03c0.08-0.15,0.23-0.24,0.4-0.25c0.2,0,0.33,0.07,0.42,0.2c0.06,0.08,0.13,0.16,0.19,0.24
	c0.12,0.17,0.25,0.33,0.36,0.5c1.62,2.55,2.5,5.36,3.08,7.53c1.06,3.97,1.54,7.28,1.53,10.44c-0.01,2.67-0.5,4.73-1.54,6.47
	c-0.32,0.54-0.73,1.02-1.12,1.48c-0.23,0.26-0.46,0.52-0.66,0.79c-0.14,0.19-0.21,0.38-0.21,0.48c-0.03,0.64-0.02,1.28,0,1.91
	l0.01,0.43c0,0.07,0.02,0.16,0.04,0.23c1.31,3.16,2.45,6.44,3.43,9.82c-0.14-1.15-0.22-2.27-0.24-3.35
	c-0.12-6.17,1.77-11.67,5.62-16.36l0.8-0.98c0.09-0.11,0.23-0.18,0.37-0.18l0.09,0.01c0.17,0.03,0.31,0.15,0.37,0.31
	c0.07,0.19,0.14,0.38,0.22,0.56c0.13,0.34,0.26,0.66,0.36,0.99c0.83,2.59,1.23,5.42,1.32,9.17v0.07c0.06,2.72,0.14,6.46-0.97,10.03
	c-1.11,3.52-3.05,5.3-3.43,5.62l-0.04,0.04c-1.03,0.91-1.69,1.75-1.83,2.29c-0.06,0.22-0.11,0.44-0.18,0.66
	c-0.29,0.97-0.11,1.89,0.08,2.87c0.1,0.51,0.21,1.03,0.24,1.57c0.14,2.13,0.32,4.3,0.48,6.4l0.02,0.19
	c0.04,0.54,0.09,1.07,0.13,1.61c0.43-4.8,2.02-9.16,4.75-13.02c1.67-2.36,3.67-4.38,5.94-6c0.09-0.07,0.19-0.13,0.33-0.21
	c0.07-0.05,0.15-0.09,0.24-0.15c0.15-0.09,0.32-0.09,0.47-0.02c0.15,0.07,0.25,0.22,0.27,0.39c0.03,0.3,0.06,0.59,0.1,0.88
	c0.08,0.64,0.15,1.23,0.15,1.84c0.03,6.28-1.29,12.16-3.95,17.48c-0.73,1.48-1.71,2.77-2.9,3.82c-1.18,1.03-2.45,1.64-3.89,1.86
	c-0.03,0.01-0.1,0.05-0.13,0.08c-0.06,0.14-0.14,0.3-0.23,0.45c-0.28,0.56-0.58,1.13-0.72,1.7c-0.13,0.49-0.13,1.02-0.13,1.58v0.62
	c-0.14,4.86-0.32,6.56-1.1,10.9c0.47-1.29,1.07-2.59,1.84-3.83c3.12-5.05,7.07-8.47,12.1-10.47c0.32-0.12,0.64-0.22,1.01-0.33
	l0.08-0.02c0.15-0.04,0.31-0.09,0.48-0.14c0.15-0.05,0.33-0.02,0.46,0.09c0.12,0.1,0.19,0.26,0.17,0.42
	C249.96,154.59,249.94,154.93,249.92,155.25z"/>
</svg>