<!-- Generator: Adobe Illustrator 21.1.0, SVG Export Plug-In  -->
<svg version="1.1"
	 xmlns="http://www.w3.org/2000/svg" xmlns:xlink="http://www.w3.org/1999/xlink" xmlns:a="http://ns.adobe.com/AdobeSVGViewerExtensions/3.0/"
	 x="0px" y="0px" width="300px" height="300px" viewBox="0 0 300 300" style="enable-background:new 0 0 300 300;"
	 xml:space="preserve">
<style type="text/css">
	.st0{fill:#F26F21;}
</style>
<defs>
</defs>
<path class="st0" d="M150,0C67.16,0,0,67.16,0,150s67.16,150,150,150c82.85,0,150-67.16,150-150S232.85,0,150,0z M224.97,228.79
	c0,0.43-0.01,0.86-0.02,1.28H91.66c-0.14-0.58-0.68-0.4-1.04-0.49c-9.37-2.24-15.59-9.93-15.6-19.54
	c-0.03-40.03-0.01-80.05-0.01-120.08c0-2.06,0.17-4.1,0.86-6.04c2.51-7.17,7.44-11.73,14.87-13.53c0.32-0.07,0.82,0.09,0.92-0.46
	h113.33c0,42.93,0,85.86,0.04,128.8c0,1.14-0.38,1.26-1.36,1.26c-35.6-0.03-71.2-0.03-106.8-0.01c-1.11,0-2.22,0.07-3.31,0.21
	c-6.93,0.88-10.79,8.69-7.3,14.75c2.12,3.69,5.44,5.16,9.59,5.16c39.27-0.01,78.53-0.01,117.8,0.03c1.3,0,1.49-0.39,1.49-1.57
	c-0.03-42.29-0.03-84.58-0.03-126.88c0-0.21,0.02-0.43,0-0.63c-0.12-0.83,0.2-1.11,1.05-1.09c2.43,0.06,4.86,0.12,7.29-0.01
	c1.34-0.08,1.55,0.37,1.55,1.6C224.97,137.3,224.98,183.05,224.97,228.79z"/>
</svg>