<?xml version="1.0" encoding="utf-8"?>
<!-- Generator: Adobe Illustrator 22.0.1, SVG Export Plug-In . SVG Version: 6.00 Build 0)  -->
<svg version="1.1" id="Layer_1" xmlns="http://www.w3.org/2000/svg" xmlns:xlink="http://www.w3.org/1999/xlink" x="0px" y="0px"
	 viewBox="0 0 33 40" style="enable-background:new 0 0 33 40;" xml:space="preserve">
<style type="text/css">
	.st0{fill:#F06F30;}
	.st1{fill:none;stroke:#F06F30;stroke-linecap:round;stroke-miterlimit:10;}
</style>
<path class="st0" d="M28.9,17.2c-0.2-0.1-0.5-0.2-0.7-0.2v-0.3c0-0.4-0.2-0.9-0.6-1.1c-0.8-0.5-2.5-1.4-5.5-1.4
	c-3.1,0-4.9,1-5.6,1.5c-0.7-0.5-2.5-1.5-5.6-1.5c-3,0-4.7,0.9-5.5,1.4c-0.4,0.2-0.6,0.7-0.6,1.1v0.3c-0.3,0.1-0.5,0.1-0.7,0.2
	c-0.5,0.2-0.9,0.7-0.9,1.2v15.3c0,0.4,0.2,0.8,0.5,1.1C4.1,35,4.5,35.1,4.9,35c1-0.3,2.8-0.7,5.5-0.7c4.3,0,5.8,1,5.8,1
	c0.1,0.1,0.2,0.1,0.3,0.1c0.1,0,0.2,0,0.3-0.1c0,0,1.4-1,5.8-1c2.7,0,4.5,0.4,5.5,0.7c0.4,0.1,0.8,0,1.2-0.2
	c0.3-0.3,0.5-0.6,0.5-1.1V18.4C29.8,17.9,29.4,17.4,28.9,17.2z M27,16.5c0.1,0.1,0.1,0.1,0.1,0.2v14.5c0,0.1-0.1,0.2-0.1,0.2
	c0,0-0.1,0.1-0.2,0.1c-0.9-0.2-2.4-0.3-4.7-0.3c-2.5,0-4.1,0.8-5,1.5V16.5c0.5-0.4,2.1-1.3,5-1.3C24.9,15.2,26.4,16.1,27,16.5z
	 M5.9,16.7c0-0.1,0-0.2,0.1-0.2c0.6-0.4,2.1-1.2,4.9-1.2c3,0,4.5,1,5,1.3v16.1c-0.9-0.7-2.6-1.5-5-1.5c-2.3,0-3.8,0.2-4.8,0.3
	c-0.1,0-0.3-0.1-0.3-0.3V16.7z M4.6,34c-0.1,0-0.2,0-0.2,0c0,0-0.1-0.1-0.1-0.2V18.4c0-0.1,0.1-0.2,0.2-0.2c0.1,0,0.2-0.1,0.4-0.1
	v13.2c0,0.8,0.7,1.4,1.5,1.3c0.8-0.1,2.3-0.3,4.6-0.3c3.1,0,4.7,1.4,5.1,1.8c-0.9-0.3-2.6-0.8-5.6-0.8C7.6,33.3,5.7,33.6,4.6,34z
	 M28.7,33.7c0,0.1-0.1,0.2-0.1,0.2c0,0-0.1,0.1-0.2,0c-1.1-0.3-3-0.7-5.8-0.7c-3,0-4.7,0.4-5.6,0.8c0.4-0.4,1.9-1.8,5.1-1.8
	c2.2,0,3.7,0.2,4.6,0.3c0.4,0.1,0.8,0,1.1-0.3c0.3-0.3,0.5-0.6,0.5-1V18c0.1,0,0.2,0.1,0.4,0.1c0.1,0,0.2,0.1,0.2,0.2V33.7z"/>
<line class="st1" x1="20.9" y1="10.6" x2="22.7" y2="7.6"/>
<line class="st1" x1="16.5" y1="9.3" x2="16.5" y2="6"/>
<line class="st1" x1="11.9" y1="10.6" x2="10.4" y2="7.6"/>
</svg>
